{"title":"Cloverfield.2008.DVDRIP-ZEKTORM","uid":4728278,"size":744470124,"categoryP":"video","categoryS":"movies","magnet":"?xt=urn:btih:6745cb5a1f38e71ce7e58f3baeb0928aa8c8b73d&amp;dn=Cloverfield.2008.DVDRIP-ZEKTORM&amp;tr=udp%3A%2F%2Ftracker.openbittorrent.com%3A80&amp;tr=udp%3A%2F%2Fopen.demonii.com%3A1337&amp;tr=udp%3A%2F%2Ftracker.coppersurfer.tk%3A6969&amp;tr=udp%3A%2F%2Fexodus.desync.com%3A6969","seeders":1,"leechers":0,"uploader":"blowley","files":4,"time":1234867983,"description":"Title                            : Cloverfield\nYear                             : 2008\nGenre                            : Action | Mystery | Sci-Fi | Thriller\niMDB Rate                        : User Rating: 7.5/10   110,421 votes\niMDB URL                         : http://www.imdb.com/title/tt1060277/\nAwards                           : 1 win &amp; 8 nominations\n\nComplete name                    : Cloverfield.2008.DVDRIP-ZEKTORM.mp4\nFormat                           : MPEG-4\nFormat profile                   : Base Media\nCodec ID                         : isom\nFile size                        : 700 MiB\nDuration                         : 1h 24mn\nOverall bit rate                 : 1156 Kbps\nSubtitles                        : English, Spanish, French (Format: VobSub)\nSource                           : DVD NTSC\nEncoded date                     : UTC 2009-02-13 12:03:22\n\nVideo\nFormat                           : AVC\nFormat/Info                      : Advanced Video Codec\nFormat profile                   : &lt;a class=&quot;__cf_email__&quot; href=&quot;/cdn-cgi/l/email-protection&quot; data-cfemail=&quot;a6eecfc1cee6ea928897&quot;&gt;[email&amp;#160;protected]&lt;/a&gt;&lt;script cf-hash='f9e31' type=&quot;text/javascript&quot;&gt;\n/* &lt;![CDATA[ */!function(){try{var t=&quot;currentScript&quot;in document?document.currentScript:function(){for(var t=document.getElementsByTagName(&quot;script&quot;),e=t.length;e--;)if(t[e].getAttribute(&quot;cf-hash&quot;))return t[e]}();if(t&amp;&amp;t.previousSibling){var e,r,n,i,c=t.previousSibling,a=c.getAttribute(&quot;data-cfemail&quot;);if(a){for(e=&quot;&quot;,r=parseInt(a.substr(0,2),16),n=2;a.length-n;n+=2)i=parseInt(a.substr(n,2),16)^r,e+=String.fromCharCode(i);e=document.createTextNode(e),c.parentNode.replaceChild(e,c)}}}catch(u){}}();/* ]]&gt; */&lt;/script&gt;\nFormat settings, CABAC           : Yes\nFormat settings, ReFrames        : 10 frames\nCodec ID                         : avc1\nCodec ID/Info                    : Advanced Video Coding\nDuration                         : 1h 24mn\nBit rate mode                    : Variable\nBit rate                         : 1 066 Kbps\nMaximum bit rate                 : 5471 Kbps\nWidth                            : 720 pixels\nHeight                           : 480 pixels\nDisplay aspect ratio             : 16/9\nFrame rate mode                  : Constant\nFrame rate                       : 23.976 fps\nStandard                         : NTSC\nResolution                       : 24 bits\nColorimetry                      : 4:2:0\nScan type                        : Progressive\nBits/(Pixel*Frame)               : 0.129\nStream size                      : 646 MiB (92%)\nTitle                            : Video\nWriting library                  : x264 core 60 r900 a9af942\n\nAudio\nFormat                           : AAC\nFormat/Info                      : Advanced Audio Codec\nFormat version                   : Version 4\nFormat profile                   : LC\nFormat settings, SBR             : Yes\nFormat settings, PS              : No\nCodec ID                         : 40\nDuration                         : 1h 24mn\nBit rate mode                    : Variable\nBit rate                         : 87.4 Kbps\nMaximum bit rate                 : 115 Kbps\nChannel(s)                       : 2 channels\nChannel positions                : L R\nSampling rate                    : 48.0 KHz\nResolution                       : 16 bits\nStream size                      : 53.0 MiB (8%)\nTitle                            : English\nLanguage                         : English\n\nNotes                            : Convert to DVD with Nero\n","torrent":{"xt":"urn:btih:6745cb5a1f38e71ce7e58f3baeb0928aa8c8b73d","amp;dn":"Cloverfield.2008.DVDRIP-ZEKTORM","amp;tr":["udp%3A%2F%2Ftracker.openbittorrent.com%3A80","udp%3A%2F%2Fopen.demonii.com%3A1337","udp%3A%2F%2Ftracker.coppersurfer.tk%3A6969","udp%3A%2F%2Fexodus.desync.com%3A6969"],"infoHash":"6745cb5a1f38e71ce7e58f3baeb0928aa8c8b73d","infoHashBuffer":{"type":"Buffer","data":[103,69,203,90,31,56,231,28,231,229,143,59,174,176,146,138,168,200,183,61]},"announce":[],"urlList":[]}}